<svg width="22" height="21" viewBox="0 0 22 21" fill="none" xmlns="http://www.w3.org/2000/svg">
<path fill-rule="evenodd" clip-rule="evenodd" d="M11.5941 0.993996C11.2485 0.710656 10.7509 0.710661 10.4053 0.994007L0.343025 9.24383C0.0367363 9.49495 -0.0786898 9.91146 0.0546535 10.2844C0.187997 10.6574 0.541336 10.9063 0.937408 10.9063H2.39461L3.13965 19.0485C3.21325 19.8529 3.88786 20.4686 4.69562 20.4686H8.18757C8.53274 20.4686 8.81256 20.1888 8.81256 19.8436V15.0407C8.81256 13.1658 10.3423 13.1658 10.6875 13.1658H11.3125C11.6577 13.1658 13.1875 13.1658 13.1875 15.0407V19.8436C13.1875 20.1888 13.4673 20.4686 13.8125 20.4686H17.3045C18.1123 20.4686 18.7869 19.8529 18.8605 19.0485L19.6055 10.9063H21.0623C21.4584 10.9063 21.8118 10.6574 21.9451 10.2844C22.0784 9.91145 21.963 9.49494 21.6567 9.24382L11.5941 0.993996Z" fill="black"/>
</svg>
