<svg width="20" height="23" viewBox="0 0 20 23" fill="none" xmlns="http://www.w3.org/2000/svg">
<path d="M10.0001 0.25C10.5063 0.25 10.9167 0.660406 10.9167 1.16667V2.75118C14.5342 3.20226 17.3334 6.28812 17.3334 10.0278V13.9018C17.3334 14.0115 17.3922 14.1127 17.4874 14.1671L18.4707 14.729C19.0642 15.0682 19.4598 15.6705 19.5353 16.3499L19.6214 17.1249C19.7622 18.3919 18.7704 19.5 17.4956 19.5H12.7501C12.7501 21.0188 11.5188 22.25 10.0001 22.25C8.48127 22.25 7.25005 21.0188 7.25005 19.5H2.5045C1.2297 19.5 0.237914 18.3919 0.378692 17.1249L0.464803 16.3499C0.540288 15.6705 0.935937 15.0682 1.52942 14.729L2.51277 14.1671C2.60798 14.1127 2.66673 14.0115 2.66673 13.9018V10.0278C2.66673 6.28813 5.46594 3.20228 9.08339 2.75118V1.16667C9.08339 0.660406 9.49379 0.25 10.0001 0.25ZM9.08339 19.5C9.08339 20.0063 9.49379 20.4167 10.0001 20.4167C10.5063 20.4167 10.9167 20.0063 10.9167 19.5H9.08339ZM10.0001 4.52778C6.9625 4.52778 4.50006 6.99021 4.50006 10.0278V13.9018C4.50006 14.6694 4.08879 15.3781 3.42236 15.7589L2.43901 16.3208C2.35423 16.3693 2.29771 16.4553 2.28692 16.5524L2.20081 17.3274C2.1807 17.5084 2.32238 17.6667 2.5045 17.6667H17.4956C17.6777 17.6667 17.8194 17.5084 17.7993 17.3274L17.7132 16.5524C17.7024 16.4553 17.6459 16.3693 17.5611 16.3208L16.5778 15.7589C15.9113 15.3781 15.5001 14.6694 15.5001 13.9018V10.0278C15.5001 6.99021 13.0376 4.52778 10.0001 4.52778Z" fill="black"/>
</svg>
