<svg width="18" height="21" viewBox="0 0 18 21" fill="none" xmlns="http://www.w3.org/2000/svg">
<path d="M8.9975 0C11.7648 0 14.0017 2.24 14.0017 5C14.0017 7.76 11.7648 10 8.9975 10C6.23517 10 3.99327 7.76 3.99327 5C3.99327 2.24 6.23517 0 8.9975 0ZM8.9975 2C7.3411 2 5.99496 3.345 5.99496 5C5.99496 6.655 7.3411 8 8.9975 8C10.6589 8 12 6.655 12 5C12 3.345 10.6589 2 8.9975 2ZM8.9975 11.5C14.1468 11.5 17.3345 14.995 17.4997 20C17.5097 20.275 17.2845 20.5 17.0043 20.5H16.0034C15.7282 20.5 15.508 20.275 15.498 20C15.3479 16.08 13.0459 13.5 8.9975 13.5C4.95408 13.5 2.65214 16.08 2.50201 20C2.492 20.275 2.27182 20.5 1.99158 20.5H0.990735C0.715503 20.5 0.490313 20.275 0.500321 20C0.665461 14.995 3.85315 11.5 8.9975 11.5Z" fill="black"/>
</svg>
